# AST/ASF file generated using VICON BodyLanguage
# -----------------------------------------------
:version 1.10
:name VICON
:units
  mass 1.0
  length 0.45
  angle deg
:documentation
   .ast/.asf automatically generated from VICON data using
   VICON BodyBuilder and BodyLanguage model FoxedUp or BRILLIANT.MOD
:root
   order TX TY TZ RX RY RZ
   axis XYZ
   position 0 0 0  
   orientation 0 0 0 
:bonedata
  begin
     id 1 
     name lhipjoint
     direction 0.62366 -0.717238 0.310833 
     length 2.53602 
     axis 0 0 0  XYZ
  end
  begin
     id 2 
     name lfemur
     direction 0.34202 -0.939693 0  
     length 7.40817  
     axis 0 0 20  XYZ
    dof rx ry rz
    limits (-160.0 20.0)
           (-70.0 70.0)
           (-60.0 70.0)
  end
  begin
     id 3 
     name ltibia
     direction 0.34202 -0.939693 0   
     length 7.7045   
     axis 0 0 20   XYZ
    dof rx
    limits (-10.0 170.0)
  end
  begin
     id 4 
     name lfoot
     direction 0.0673888 -0.185149 0.980397   
     length 2.09456   
     axis -90 7.62852e-016 20   XYZ
    dof rx rz
    limits (-45.0 90.0)
           (-70.0 20.0)
  end
  begin
     id 5 
     name ltoes
     direction 1.53575e-011 -4.21994e-011 1   
     length 1.05543   
     axis -90 7.62852e-016 20   XYZ
    dof rx
    limits (-90.0 20.0)
  end
  begin
     id 6 
     name rhipjoint
     direction -0.489018 -0.800347 0.346851   
     length 2.27268  
     axis 0 0 0  XYZ 
  end
  begin
     id 7 
     name rfemur
     direction -0.34202 -0.939693 0   
     length 7.55487   
     axis 0 0 -20   XYZ
    dof rx ry rz
    limits (-160.0 20.0)
           (-70.0 70.0)
           (-70.0 60.0)
  end
  begin
     id 8 
     name rtibia
     direction -0.34202 -0.939693 0   
     length 7.78969   
     axis 0 0 -20   XYZ
    dof rx
    limits (-10.0 170.0)
 end
 begin
     id 9 
     name rfoot
     direction -0.0859318 -0.236096 0.967923   
     length 2.19143  
     axis -90 -7.62852e-016 -20   XYZ
    dof rx rz
    limits (-45.0 90.0)
           (-20.0 70.0)
  end
  begin
     id 10 
     name rtoes
     direction -1.53538e-011 -4.21989e-011 1   
     length 1.09845   
     axis -90 -7.62852e-016 -20   XYZ
    dof rx
    limits (-90.0 20.0)
  end
  begin
     id 11 
     name lowerback
     direction -0.00762546 0.998978 -0.0445553   
     length 1.98161   
     axis 0 0 0   XYZ
    dof rx ry rz
    limits (-20.0 45.0)
           (-30.0 30.0)
           (-30.0 30.0)
  end
  begin
     id 12 
     name upperback
     direction 0.0422361 0.998867 -0.0219156   
     length 1.97558   
     axis 0 0 0   XYZ
    dof rx ry rz
    limits (-20.0 45.0)
           (-30.0 30.0)
           (-30.0 30.0)
  end
  begin
     id 13 
     name thorax
     direction 0.0442465 0.999021 7.47603e-005   
     length 1.97799   
     axis 0 0 0   XYZ
    dof rx ry rz
    limits (-20.0 45.0)
           (-30.0 30.0)
           (-30.0 30.0)
  end
  begin
     id 14 
     name lowerneck
     direction 0.00312169 0.984641 0.174564   
     length 1.78995   
     axis 0 0 0   XYZ
    dof rx ry rz
    limits (-20.0 45.0)
           (-30.0 30.0)
           (-30.0 30.0)
  end
  begin
     id 15 
     name upperneck
     direction -0.0383028 0.985255 -0.166749   
     length 1.83053   
     axis 0 0 0   XYZ
    dof rx ry rz
    limits (-20.0 45.0)
           (-30.0 30.0)
           (-30.0 30.0)
  end
  begin
     id 16
     name head
     direction -0.0129546 0.997059 -0.0755386  
     length 1.84088  
     axis 0 0 0   XYZ
    dof rx ry rz
    limits (-20.0 45.0)
           (-30.0 30.0)
           (-30.0 30.0)
  end
  begin
     id 17 
     name lclavicle
     direction 0.912857 0.370519 -0.171488  
     length 3.51279  
     axis 0 0 0   XYZ
    dof ry rz
    limits (-20.0 10.0)
           (0.0 20.0)
  end
  begin
     id 18 
     name lhumerus
     direction 1 -4.48962e-011 3.64361e-027   
     length 4.95663   
     axis 180 -30 -90   XYZ
    dof rx ry rz
    limits (-60.0 90.0)
           (-90.0 90.0)
           (-90.0 90.0)
  end
  begin
     id 19
     name lradius
     direction 1 -4.48974e-011 5.97202e-027   
     length 3.38177   
     axis 180 -30 -90   XYZ
    dof rx
    limits (-10.0 170.0)
  end
  begin
     id 20
     name lwrist
     direction 1 -4.4896e-011 9.83288e-027   
     length 1.69088   
     axis -9.31221e-015 90 90   XYZ
    dof ry
    limits (-180.0 0.0)
 end
  begin
     id 21 
     name lhand
     direction 1 -4.4902e-011 1.96551e-026   
     length 0.662909   
     axis -1.25475e-014 90 90   XYZ
    dof rx rz
    limits (-90.0 90.0)
           (-45.0 45.0)
  end
  begin
     id 22 
     name lfingers
     direction 1 -4.48971e-011 3.93277e-026   
     length 0.534454   
     axis -2.50945e-014 90 90   XYZ
    dof rx
    limits (0.0 90.0)
  end
  begin
     id 23
     name lthumb
     direction 0.707107 -6.34933e-011 0.707107   
     length 0.767373   
     axis -90 45 -4.80359e-014   XYZ
    dof rx rz
    limits (-45.0 45.0)
           (-45.0 45.0)
  end
  begin
     id 24 
     name rclavicle
     direction -0.900919 0.395364 -0.178976   
     length 3.40627  
     axis 0 0 0   XYZ 
    dof ry rz
    limits (-10.0 20.0)
           (-20.0 0.0)
  end
  begin
     id 25 
     name rhumerus
     direction -1 -4.48969e-011 1.03875e-027  
     length 5.08365   
     axis 180 30 90   XYZ
    dof rx ry rz
    limits (-90.0 60.0)
           (-90.0 90.0)
           (-90.0 90.0)
  end
  begin
     id 26 
     name rradius
     direction -1 -4.48951e-011 5.02733e-027   
     length 3.35984   
     axis 180 30 90   XYZ
    dof rx
    limits (-10.0 170.0)
  end
  begin
     id 27 
     name rwrist
     direction -1 -4.49011e-011 9.82828e-027   
     length 1.67992   
     axis -9.31221e-015 -90 -90   XYZ
    dof ry
    limits (-180.0 0.0)
  end
  begin
     id 28
     name rhand
     direction -1 -4.48894e-011 1.96774e-026   
     length 0.820764   
     axis -1.25475e-014 -90 -90   XYZ
    dof rx rz
    limits (-90.0 90.0)
           (-45.0 45.0)
  end
  begin
     id 29
     name rfingers
     direction -1 -4.49095e-011 3.92833e-026   
     length 0.661721   
     axis -2.50945e-014 -90 -90   XYZ
    dof rx
    limits (0.0 90.0)
  end
  begin
     id 30
     name rthumb
     direction -0.707107 -6.34881e-011 0.707107   
     length 0.950103   
     axis -90 -45 4.80359e-014   XYZ
    dof rx rz
    limits (-45.0 45.0)
           (-45.0 45.0)
  end
:hierarchy
  begin
    root lhipjoint rhipjoint lowerback
    lhipjoint lfemur
    lfemur ltibia
    ltibia lfoot
    lfoot ltoes
    rhipjoint rfemur
    rfemur rtibia
    rtibia rfoot
    rfoot rtoes
    lowerback upperback
    upperback thorax
    thorax lowerneck lclavicle rclavicle
    lowerneck upperneck
    upperneck head
    lclavicle lhumerus
    lhumerus lradius
    lradius lwrist
    lwrist lhand lthumb
    lhand lfingers
    rclavicle rhumerus
    rhumerus rradius
    rradius rwrist
    rwrist rhand rthumb
    rhand rfingers
  end

#!OML:ASF I:\golf\golf\golf 2\Subject 1\2002-09-07\Subject1.ASF
:FULLY-SPECIFIED
:DEGREES
93
root -5.77531 17.8734 1.67624 -76.4807 86.1988 -93.8549
lowerback 4.55231 1.712 -1.22721
upperback 3.17132 2.37994 5.01585
thorax 0.455472 1.19327 5.78634
lowerneck -17.1054 -1.6842 1.94913
upperneck 41.0813 1.44213 -6.13389
head 18.385 0.626115 -2.77195
rclavicle 1.19271e-014 5.56597e-015
rhumerus -4.60357 -2.74345 -101.077
rradius 20.5853
rwrist -32.8378
rhand -14.789 -5.97057
rfingers 7.12502
rthumb 11.3682 -35.6424
lclavicle 1.19271e-014 5.56597e-015
lhumerus -11.358 -43.8226 111.249
lradius 27.7669
lwrist 45.8015
lhand -13.2473 68.1227
lfingers 7.12502
lthumb -167.145 82.2932
rfemur -29.0055 0.0507612 12.7819
rtibia 28.2846
rfoot -11.5103 -9.21187
rtoes 23.6612
lfemur -30.952 5.2697 -9.50901
ltibia 30.5386
lfoot -11.5455 0.685725
ltoes -23.9916
94
root -5.77467 17.8732 1.67582 -76.4559 86.2116 -93.8395
lowerback 4.53741 1.69639 -1.3017
upperback 3.16917 2.35713 5.05094
thorax 0.460024 1.18077 5.86763
lowerneck -17.0769 -1.67071 1.94052
upperneck 41.0554 1.48518 -6.18269
head 18.366 0.635003 -2.78357
rclavicle -1.51076e-014 -3.4191e-014
rhumerus -4.58698 -2.76452 -101.076
rradius 20.5341
rwrist -32.6773
rhand -14.7986 -5.98309
rfingers 7.12502
rthumb 11.359 -35.6555
lclavicle -1.51076e-014 -3.4191e-014
lhumerus -11.324 -43.6873 111.28
lradius 27.7254
lwrist 45.6596
lhand -13.3659 68.2948
lfingers 7.12502
lthumb -167.26 82.1139
rfemur -29.0081 0.0378562 12.7698
rtibia 28.2831
rfoot -11.5492 -9.20392
rtoes 23.6036
lfemur -30.9575 5.27267 -9.52712
ltibia 30.5368
lfoot -11.5328 0.667371
ltoes -23.8029
95
root -5.77394 17.8732 1.67451 -76.4882 86.2201 -93.8729
lowerback 4.54042 1.69118 -1.32069
upperback 3.15866 2.3496 5.05254
thorax 0.447565 1.17699 5.88021
lowerneck -17.052 -1.66904 1.95356
upperneck 41.0558 1.49225 -6.20028
head 18.3602 0.638223 -2.79244
rclavicle 3.73715e-014 5.08889e-014
rhumerus -4.59929 -2.76297 -101.097
rradius 20.5392
rwrist -32.612
rhand -14.8226 -6.09755
rfingers 7.12502
rthumb 11.3359 -35.7712
lclavicle 3.73715e-014 5.08889e-014
lhumerus -11.3566 -43.7625 111.3
lradius 27.7457
lwrist 45.6613
lhand -13.5287 68.5081
lfingers 7.12502
lthumb -167.416 81.8909
rfemur -29.0025 0.0189844 12.7598
rtibia 28.2839
rfoot -11.5957 -9.16568
rtoes 23.6499
lfemur -30.9534 5.2601 -9.53864
ltibia 30.5339
lfoot -11.5255 0.675396
ltoes -23.7554
96
root -5.77361 17.8735 1.67406 -76.5146 86.2048 -93.9193
lowerback 4.53641 1.7423 -1.22468
upperback 3.14219 2.41931 4.98367
thorax 0.431239 1.21342 5.74875
lowerneck -17.0817 -1.71412 2.05527
upperneck 41.0904 1.37998 -6.18324
head 18.3792 0.613043 -2.82682
rclavicle -1.86858e-014 -1.06549e-013
rhumerus -4.56065 -3.02303 -101.16
rradius 20.5432
rwrist -32.5127
rhand -14.8272 -6.19504
rfingers 7.12502
rthumb 11.3314 -35.8689
lclavicle -1.86858e-014 -1.06549e-013
lhumerus -11.4826 -44.1151 111.3
lradius 27.8325
lwrist 45.8127
lhand -13.6006 68.6633
lfingers 7.12502
lthumb -167.486 81.7314
rfemur -29.0304 -0.00743133 12.7815
rtibia 28.2871
rfoot -11.6502 -9.11424
rtoes 24.1018
lfemur -30.976 5.28226 -9.52818
ltibia 30.531
lfoot -11.5304 0.670398
ltoes -24.0726
97
root -5.77348 17.8739 1.67486 -76.5105 86.2259 -93.9382
lowerback 4.50713 1.74798 -1.26933
upperback 3.14985 2.42438 4.98033
thorax 0.453389 1.21474 5.77168
lowerneck -17.1219 -1.71764 2.08027
upperneck 41.0906 1.36669 -6.19425
head 18.3894 0.609124 -2.84019
rclavicle 6.36111e-015 1.19271e-014
rhumerus -4.51552 -3.039 -101.178
rradius 20.5414
rwrist -32.4982
rhand -14.9736 -6.27176
rfingers 7.12502
rthumb 11.1902 -35.9533
lclavicle 6.36111e-015 1.19271e-014
lhumerus -11.4346 -44.0705 111.257
lradius 27.8404
lwrist 45.7834
lhand -13.5562 68.6444
lfingers 7.12502
lthumb -167.443 81.7529
rfemur -29.0625 -0.0627212 12.7766
rtibia 28.289
rfoot -11.5878 -9.10938
rtoes 23.8201
lfemur -31.0042 5.31162 -9.56046
ltibia 30.5269
lfoot -11.5369 0.643588
ltoes -24.26
98
root -5.77328 17.8744 1.67487 -76.0914 86.2814 -93.5127
lowerback 4.49109 1.70874 -1.44504
upperback 3.17648 2.36706 5.05265
thorax 0.487026 1.1828 5.95275
lowerneck -17.1382 -1.67466 1.97276
upperneck 41.0819 1.48177 -6.214
head 18.3989 0.634169 -2.80748
rclavicle -1.03368e-014 -1.51076e-014
rhumerus -4.51559 -2.70145 -101.123
rradius 20.5551
rwrist -32.6307
rhand -15.1675 -6.35837
rfingers 7.12502
rthumb 11.0032 -36.05
lclavicle -1.03368e-014 -1.51076e-014
lhumerus -11.2925 -43.8572 111.223
lradius 27.8299
lwrist 45.6957
lhand -13.4826 68.4903
lfingers 7.12502
lthumb -167.372 81.9114
rfemur -29.0597 -0.0936368 12.7212
rtibia 28.2831
rfoot -11.5265 -9.08583
rtoes 23.5552
lfemur -30.9823 5.30687 -9.62393
ltibia 30.5247
lfoot -11.5599 0.66135
ltoes -23.9166
99
root -5.77269 17.8749 1.67425 -75.7239 86.2816 -93.1324
lowerback 4.48604 1.70367 -1.48264
upperback 3.19575 2.35958 5.08136
thorax 0.508192 1.17808 6.00569
lowerneck -17.1493 -1.64871 1.92944
upperneck 41.0839 1.53727 -6.20887
head 18.4079 0.649911 -2.78652
rclavicle -6.36111e-015 -1.59028e-015
rhumerus -4.53111 -2.47278 -101.086
rradius 20.6129
rwrist -32.8349
rhand -15.2559 -6.44769
rfingers 7.12502
rthumb 10.918 -36.1438
lclavicle -6.36111e-015 -1.59028e-015
lhumerus -11.2711 -43.9717 111.211
lradius 27.8784
lwrist 45.769
lhand -13.599 68.4203
lfingers 7.12502
lthumb -167.484 81.9745
rfemur -29.0416 -0.0830131 12.7123
rtibia 28.2667
rfoot -11.5822 -9.03532
rtoes 23.9176
lfemur -30.9481 5.26945 -9.61459
ltibia 30.5282
lfoot -11.5607 0.719515
ltoes -23.648
